<svg xmlns="http://www.w3.org/2000/svg" width="1058.27" height="595.28" viewBox="0 0 28000 15750" preserveAspectRatio="xMidYMid" fill-rule="evenodd" stroke-width="28.22" stroke-linejoin="round"  xmlns:v="https://vecta.io/nano"><style><![CDATA[.B{opacity:.82}.C{fill:#1987f8}.D{fill:#0edced}.E{color-interpolation-filters:sRGB}]]></style><defs><filter id="A" x="-.31" width="1.63" y="-.36" height="1.71"><feGaussianBlur in="SourceGraphic" stdDeviation="471.31"/></filter><filter id="B" x="-.33" width="1.65" y="-.39" height="1.78" class="E"><feGaussianBlur stdDeviation="1423.31"/></filter><filter id="C" x="-.52" width="2.05" y="-.61" height="2.22"><feGaussianBlur in="SourceGraphic" stdDeviation="1188.13"/></filter><filter id="D" x="-.3" width="1.59" y="-.31" height="1.62" class="E"><feGaussianBlur stdDeviation="721.09"/></filter><filter id="E" x="-.26" width="1.52" y="-.3" height="1.59"><feGaussianBlur in="SourceGraphic" stdDeviation="903.02"/></filter><filter id="F" x="-.26" width="1.52" y="-.3" height="1.59"><feGaussianBlur in="SourceGraphic" stdDeviation="906.44"/></filter><filter id="G" x="-.53" width="2.07" y="-.55" height="2.09"><feGaussianBlur in="SourceGraphic" stdDeviation="1428.84"/></filter><filter id="H" x="-.22" width="1.44" y="-.23" height="1.46"><feGaussianBlur in="SourceGraphic" stdDeviation="1002.71"/></filter><filter id="I" x="-.31" width="1.62" y="-.35" height="1.7"><feGaussianBlur in="SourceGraphic" stdDeviation="467.53"/></filter></defs><ellipse cx="1414.63" cy="1292.57" rx="6666.95" ry="5731.48" filter="url(#F)" class="B C"/><ellipse cx="20663.29" cy="-682.25" rx="4146.6" ry="3672.71" filter="url(#E)" transform="matrix(1.2297 0 0 1.3094 -5745.3765 2056.6585)" class="B D"/><g fill="#dcffaf"><ellipse cx="10078.75" cy="7803.07" rx="5480.66" ry="5205.75" transform="matrix(1.0857 -.0594 .057 .9841 -1499.5793 -134.8999)" filter="url(#H)" stroke="#dcffaf" stroke-width="645.22" class="B"/><ellipse cx="24952.48" cy="13904.41" rx="4146.6" ry="3672.7" filter="url(#A)" class="B"/></g><ellipse cx="25614.77" cy="6059.68" rx="2932.69" ry="2812.5" transform="matrix(.9466 0 0 1.256 1769.579 -2571.5265)" filter="url(#D)" class="B C"/><ellipse cx="5427.28" cy="16723.3" rx="5244.8" ry="4371.56" transform="matrix(.9439 0 0 1.25 304.7195 -5568.7624)" filter="url(#B)" class="B D"/><ellipse cx="16690.33" cy="11873.76" rx="3215.76" ry="3135.56" transform="matrix(1.1906 -.0687 .0609 1.109 -4515.2884 -272.8599)" filter="url(#G)" class="B C"/><ellipse cx="15914.15" cy="7137.92" rx="1796.77" ry="1593.01" filter="url(#I)" transform="matrix(1.0998 0 0 1.0083 -1398.4058 -132.1119)" class="B D"/><ellipse cx="561.04" cy="10307.47" rx="2723.94" ry="2335.31" transform="matrix(.9985 -.0544 .0581 .9983 0 0)" filter="url(#C)" fill="#dcffaf" class="B"/></svg>